<svg xmlns="http://www.w3.org/2000/svg" version="1.1" xmlns:xlink="http://www.w3.org/1999/xlink" xmlns:svgjs="http://svgjs.dev/svgjs" viewBox="0 0 10.00929361293149 4.374433183277436"><g transform="matrix(1,0,0,1,3.6945065810893767,1.087994016638718)"><g><path d=" M 0.15816 0.20956200000000003 Q 0.122574 0.1739759999999999 0.122574 0.12257399999999996 Q 0.122574 0.07117200000000001 0.15816 0.035585999999999895 Q 0.193746 0 0.245148 0 Q 0.29457300000000003 0 0.3291705 0.035585999999999895 Q 0.363768 0.07117200000000001 0.363768 0.12257399999999996 Q 0.363768 0.1739759999999999 0.3291705 0.20956200000000003 Q 0.29457300000000003 0.24514799999999992 0.245148 0.24514799999999992 Q 0.193746 0.24514799999999992 0.15816 0.20956200000000003 M 0.332136 0.42110099999999995 L 0.332136 1.504497 L 0.152229 1.504497 L 0.152229 0.42110099999999995 L 0.332136 0.42110099999999995 M 2.1865060107421876 0.4537214999999999 Q 2.2853560107421877 0.506112 2.3426890107421876 0.6108929999999999 Q 2.4000220107421875 0.7156739999999999 2.4000220107421875 0.865926 L 2.4000220107421875 1.504497 L 2.2220920107421875 1.504497 L 2.2220920107421875 0.891627 Q 2.2220920107421875 0.729513 2.1420235107421877 0.6435135 Q 2.0619550107421873 0.557514 1.9255420107421877 0.557514 Q 1.7851750107421878 0.557514 1.7021410107421877 0.6474675 Q 1.6191070107421877 0.737421 1.6191070107421877 0.907443 L 1.6191070107421877 1.504497 L 1.4411770107421875 1.504497 L 1.4411770107421875 0.891627 Q 1.4411770107421875 0.729513 1.3611085107421874 0.6435135 Q 1.2810400107421875 0.557514 1.1446270107421874 0.557514 Q 1.0042600107421875 0.557514 0.9212260107421875 0.6474675 Q 0.8381920107421875 0.737421 0.8381920107421875 0.907443 L 0.8381920107421875 1.504497 L 0.6582850107421876 1.504497 L 0.6582850107421876 0.42110099999999995 L 0.8381920107421875 0.42110099999999995 L 0.8381920107421875 0.5772839999999999 Q 0.8915710107421875 0.49227299999999996 0.9815245107421875 0.4468019999999999 Q 1.0714780107421875 0.4013309999999999 1.1802130107421875 0.4013309999999999 Q 1.3166260107421874 0.4013309999999999 1.4214070107421874 0.462618 Q 1.5261880107421875 0.523905 1.5775900107421874 0.642525 Q 1.6230610107421874 0.527859 1.7278420107421875 0.46459499999999987 Q 1.8326230107421875 0.4013309999999999 1.9611280107421876 0.4013309999999999 Q 2.0876560107421875 0.4013309999999999 2.1865060107421876 0.4537214999999999 M 3.696991930664063 1.030017 L 2.831065930664063 1.030017 Q 2.840950930664063 1.190154 2.9407894306640627 1.2801075 Q 3.040627930664063 1.370061 3.182971930664063 1.370061 Q 3.2996149306640628 1.370061 3.377706430664063 1.3156935 Q 3.4557979306640627 1.261326 3.487429930664063 1.1703839999999999 L 3.681175930664063 1.1703839999999999 Q 3.637681930664063 1.326567 3.507199930664063 1.4244284999999999 Q 3.376717930664063 1.52229 3.182971930664063 1.52229 Q 3.028765930664063 1.52229 2.907180430664063 1.453095 Q 2.785594930664063 1.3839 2.7163999306640627 1.2563834999999999 Q 2.647204930664063 1.128867 2.647204930664063 0.960822 Q 2.647204930664063 0.792777 2.714422930664063 0.666249 Q 2.781640930664063 0.539721 2.9032264306640627 0.47151450000000006 Q 3.024811930664063 0.403308 3.182971930664063 0.403308 Q 3.3371779306640628 0.403308 3.4557979306640627 0.470526 Q 3.5744179306640627 0.537744 3.638670430664063 0.6553755 Q 3.702922930664063 0.773007 3.702922930664063 0.9212819999999999 Q 3.702922930664063 0.972684 3.696991930664063 1.030017 M 3.4716139306640628 0.7067775 Q 3.4261429306640627 0.63264 3.348051430664063 0.5940884999999999 Q 3.2699599306640628 0.555537 3.175063930664063 0.555537 Q 3.0386509306640628 0.555537 2.942766430664063 0.642525 Q 2.846881930664063 0.729513 2.833042930664063 0.8837189999999999 L 3.517084930664063 0.8837189999999999 Q 3.517084930664063 0.7809149999999999 3.4716139306640628 0.7067775 M 4.94249227734375 1.030017 L 4.07656627734375 1.030017 Q 4.08645127734375 1.190154 4.186289777343751 1.2801075 Q 4.28612827734375 1.370061 4.428472277343751 1.370061 Q 4.545115277343751 1.370061 4.62320677734375 1.3156935 Q 4.70129827734375 1.261326 4.73293027734375 1.1703839999999999 L 4.92667627734375 1.1703839999999999 Q 4.88318227734375 1.326567 4.752700277343751 1.4244284999999999 Q 4.62221827734375 1.52229 4.428472277343751 1.52229 Q 4.2742662773437505 1.52229 4.15268077734375 1.453095 Q 4.03109527734375 1.3839 3.96190027734375 1.2563834999999999 Q 3.8927052773437505 1.128867 3.8927052773437505 0.960822 Q 3.8927052773437505 0.792777 3.9599232773437505 0.666249 Q 4.02714127734375 0.539721 4.14872677734375 0.47151450000000006 Q 4.27031227734375 0.403308 4.428472277343751 0.403308 Q 4.58267827734375 0.403308 4.70129827734375 0.470526 Q 4.81991827734375 0.537744 4.88417077734375 0.6553755 Q 4.948423277343751 0.773007 4.948423277343751 0.9212819999999999 Q 4.948423277343751 0.972684 4.94249227734375 1.030017 M 4.71711427734375 0.7067775 Q 4.67164327734375 0.63264 4.59355177734375 0.5940884999999999 Q 4.515460277343751 0.555537 4.42056427734375 0.555537 Q 4.28415127734375 0.555537 4.188266777343751 0.642525 Q 4.09238227734375 0.729513 4.07854327734375 0.8837189999999999 L 4.76258527734375 0.8837189999999999 Q 4.76258527734375 0.7809149999999999 4.71711427734375 0.7067775 M 5.424870624023438 0.569376 L 5.424870624023438 1.2079469999999999 Q 5.424870624023438 1.287027 5.458479624023438 1.3196474999999999 Q 5.492088624023438 1.352268 5.575122624023438 1.352268 L 5.707581624023438 1.352268 L 5.707581624023438 1.504497 L 5.545467624023438 1.504497 Q 5.395215624023438 1.504497 5.320089624023438 1.435302 Q 5.244963624023438 1.366107 5.244963624023438 1.2079469999999999 L 5.244963624023438 0.569376 L 5.104596624023438 0.569376 L 5.104596624023438 0.42110099999999995 L 5.244963624023438 0.42110099999999995 L 5.244963624023438 0.14827499999999993 L 5.424870624023438 0.14827499999999993 L 5.424870624023438 0.42110099999999995 L 5.707581624023438 0.42110099999999995 L 5.707581624023438 0.569376 L 5.424870624023438 0.569376" fill="#0094ff" fill-rule="nonzero"></path></g><g><path d=" M 0.090735 2.1984451499999995 Q 0.087285 2.1984451499999995 0.0850425 2.1962026499999996 Q 0.0828 2.1939601499999997 0.0828 2.1905101499999997 L 0.0828 1.9876501499999994 L 0.01656 1.9876501499999994 Q 0.01311 1.9876501499999994 0.010867499999999999 1.9854076499999995 Q 0.008624999999999999 1.9831651499999996 0.008624999999999999 1.9797151499999996 L 0.008624999999999999 1.9652251499999995 Q 0.008624999999999999 1.9614301499999995 0.010867499999999999 1.9591876499999996 Q 0.01311 1.9569451499999995 0.01656 1.9569451499999995 L 0.18284999999999998 1.9569451499999995 Q 0.18664499999999998 1.9569451499999995 0.18888749999999999 1.9591876499999996 Q 0.19113 1.9614301499999995 0.19113 1.9652251499999995 L 0.19113 1.9797151499999996 Q 0.19113 1.9831651499999996 0.18888749999999999 1.9854076499999995 Q 0.18664499999999998 1.9876501499999994 0.18284999999999998 1.9876501499999994 L 0.11695499999999999 1.9876501499999994 L 0.11695499999999999 2.1905101499999997 Q 0.11695499999999999 2.1939601499999997 0.1147125 2.1962026499999996 Q 0.11247 2.1984451499999995 0.108675 2.1984451499999995 L 0.090735 2.1984451499999995 M 0.20872011474609373 2.1984451499999995 Q 0.20527011474609375 2.1984451499999995 0.20302761474609374 2.1962026499999996 Q 0.20078511474609373 2.1939601499999997 0.20078511474609373 2.1905101499999997 L 0.20078511474609373 2.0273251499999994 Q 0.20078511474609373 2.0238751499999994 0.20302761474609374 2.0214601499999993 Q 0.20527011474609375 2.0190451499999993 0.20872011474609373 2.0190451499999993 L 0.22459011474609372 2.0190451499999993 Q 0.22804011474609373 2.0190451499999993 0.23045511474609373 2.0214601499999993 Q 0.23287011474609373 2.0238751499999994 0.23287011474609373 2.0273251499999994 L 0.23287011474609373 2.0425051499999993 Q 0.23977011474609372 2.0307751499999993 0.2518451147460937 2.0249101499999993 Q 0.2639201147460937 2.0190451499999993 0.2811701147460937 2.0190451499999993 L 0.2946251147460937 2.0190451499999993 Q 0.2980751147460937 2.0190451499999993 0.30031761474609375 2.0212876499999997 Q 0.30256011474609373 2.0235301499999996 0.30256011474609373 2.0269801499999995 L 0.30256011474609373 2.0411251499999996 Q 0.30256011474609373 2.0445751499999996 0.30031761474609375 2.0466451499999994 Q 0.2980751147460937 2.0487151499999996 0.2946251147460937 2.0487151499999996 L 0.2739251147460937 2.0487151499999996 Q 0.25529511474609373 2.0487151499999996 0.24460011474609372 2.0595826499999994 Q 0.2339051147460937 2.0704501499999997 0.2339051147460937 2.0890801499999996 L 0.2339051147460937 2.1905101499999997 Q 0.2339051147460937 2.1939601499999997 0.23149011474609374 2.1962026499999996 Q 0.22907511474609374 2.1984451499999995 0.22562511474609373 2.1984451499999995 L 0.20872011474609373 2.1984451499999995 M 0.38260331542968745 2.2018951499999995 Q 0.36535331542968746 2.2018951499999995 0.35120831542968745 2.1949951499999996 Q 0.3370633154296875 2.1880951499999997 0.3284383154296875 2.1763651499999996 Q 0.3198133154296875 2.1646351499999996 0.3198133154296875 2.1498001499999995 Q 0.3198133154296875 2.1259951499999996 0.33913331542968744 2.1118501499999995 Q 0.35845331542968745 2.0977051499999995 0.38950331542968747 2.0932201499999996 L 0.44090831542968745 2.0859751499999994 L 0.44090831542968745 2.0759701499999994 Q 0.44090831542968745 2.0594101499999997 0.43142081542968747 2.0500951499999998 Q 0.4219333154296875 2.0407801499999993 0.40054331542968746 2.0407801499999993 Q 0.3853633154296875 2.0407801499999993 0.3757033154296875 2.0469901499999996 Q 0.3660433154296875 2.0532001499999994 0.3622483154296875 2.0628601499999997 Q 0.3601783154296875 2.0680351499999996 0.35500331542968744 2.0680351499999996 L 0.3394783154296875 2.0680351499999996 Q 0.3356833154296875 2.0680351499999996 0.33378581542968744 2.0657926499999997 Q 0.33188831542968744 2.0635501499999993 0.33188831542968744 2.0604451499999996 Q 0.33188831542968744 2.0552701499999997 0.33585581542968745 2.0476801499999997 Q 0.33982331542968747 2.0400901499999997 0.3481033154296875 2.0328451499999995 Q 0.3563833154296875 2.0256001499999994 0.3693208154296875 2.0205976499999996 Q 0.38225831542968747 2.0155951499999993 0.40088831542968745 2.0155951499999993 Q 0.42158831542968744 2.0155951499999993 0.43573331542968746 2.0209426499999994 Q 0.4498783154296875 2.0262901499999995 0.45798581542968747 2.0352601499999996 Q 0.46609331542968746 2.0442301499999997 0.46971581542968743 2.0556151499999995 Q 0.47333831542968746 2.0670001499999997 0.47333831542968746 2.0787301499999997 L 0.47333831542968746 2.1905101499999997 Q 0.47333831542968746 2.1939601499999997 0.4710958154296875 2.1962026499999996 Q 0.46885331542968745 2.1984451499999995 0.4654033154296875 2.1984451499999995 L 0.44953331542968744 2.1984451499999995 Q 0.44573831542968745 2.1984451499999995 0.44366831542968743 2.1962026499999996 Q 0.44159831542968747 2.1939601499999997 0.44159831542968747 2.1905101499999997 L 0.44159831542968747 2.1756751499999996 Q 0.43711331542968745 2.1818851499999994 0.42952331542968747 2.1879226499999995 Q 0.4219333154296875 2.1939601499999997 0.41054831542968745 2.1979276499999996 Q 0.39916331542968747 2.2018951499999995 0.38260331542968745 2.2018951499999995 M 0.38984831542968745 2.1760201499999994 Q 0.40399331542968747 2.1760201499999994 0.41572331542968743 2.1699826499999997 Q 0.42745331542968745 2.1639451499999995 0.43418081542968745 2.1511801499999996 Q 0.44090831542968745 2.1384151499999997 0.44090831542968745 2.1190951499999997 L 0.44090831542968745 2.1094351499999995 L 0.40088831542968745 2.1153001499999995 Q 0.37639331542968746 2.1187501499999994 0.36397331542968747 2.1268576499999994 Q 0.3515533154296875 2.1349651499999993 0.3515533154296875 2.1473851499999994 Q 0.3515533154296875 2.1570451499999996 0.3572458154296875 2.1634276499999996 Q 0.36293831542968746 2.1698101499999995 0.3717358154296875 2.1729151499999997 Q 0.3805333154296875 2.1760201499999994 0.38984831542968745 2.1760201499999994 M 0.5344039892578124 2.1984451499999995 Q 0.5309539892578125 2.1984451499999995 0.5287114892578124 2.1962026499999996 Q 0.5264689892578125 2.1939601499999997 0.5264689892578125 2.1905101499999997 L 0.5264689892578125 2.0269801499999995 Q 0.5264689892578125 2.0235301499999996 0.5287114892578124 2.0212876499999997 Q 0.5309539892578125 2.0190451499999993 0.5344039892578124 2.0190451499999993 L 0.5509639892578124 2.0190451499999993 Q 0.5544139892578124 2.0190451499999993 0.5566564892578124 2.0212876499999997 Q 0.5588989892578125 2.0235301499999996 0.5588989892578125 2.0269801499999995 L 0.5588989892578125 2.1905101499999997 Q 0.5588989892578125 2.1939601499999997 0.5566564892578124 2.1962026499999996 Q 0.5544139892578124 2.1984451499999995 0.5509639892578124 2.1984451499999995 L 0.5344039892578124 2.1984451499999995 M 0.5316439892578124 1.9855801499999994 Q 0.5281939892578125 1.9855801499999994 0.5259514892578124 1.9833376499999995 Q 0.5237089892578124 1.9810951499999996 0.5237089892578124 1.9776451499999994 L 0.5237089892578124 1.9590151499999995 Q 0.5237089892578124 1.9555651499999995 0.5259514892578124 1.9531501499999995 Q 0.5281939892578125 1.9507351499999994 0.5316439892578124 1.9507351499999994 L 0.5533789892578125 1.9507351499999994 Q 0.5568289892578124 1.9507351499999994 0.5592439892578125 1.9531501499999995 Q 0.5616589892578124 1.9555651499999995 0.5616589892578124 1.9590151499999995 L 0.5616589892578124 1.9776451499999994 Q 0.5616589892578124 1.9810951499999996 0.5592439892578125 1.9833376499999995 Q 0.5568289892578124 1.9855801499999994 0.5533789892578125 1.9855801499999994 L 0.5316439892578124 1.9855801499999994 M 0.6244409033203124 2.1984451499999995 Q 0.6209909033203125 2.1984451499999995 0.6187484033203124 2.1962026499999996 Q 0.6165059033203124 2.1939601499999997 0.6165059033203124 2.1905101499999997 L 0.6165059033203124 2.0269801499999995 Q 0.6165059033203124 2.0235301499999996 0.6187484033203124 2.0212876499999997 Q 0.6209909033203125 2.0190451499999993 0.6244409033203124 2.0190451499999993 L 0.6406559033203124 2.0190451499999993 Q 0.6441059033203125 2.0190451499999993 0.6463484033203125 2.0212876499999997 Q 0.6485909033203124 2.0235301499999996 0.6485909033203124 2.0269801499999995 L 0.6485909033203124 2.0421601499999995 Q 0.6575609033203125 2.0304301499999995 0.6711884033203125 2.0230126499999996 Q 0.6848159033203125 2.0155951499999993 0.7062059033203125 2.0155951499999993 Q 0.7286309033203124 2.0155951499999993 0.7443284033203125 2.0254276499999997 Q 0.7600259033203125 2.0352601499999996 0.7681334033203124 2.0526826499999995 Q 0.7762409033203125 2.0701051499999994 0.7762409033203125 2.0932201499999996 L 0.7762409033203125 2.1905101499999997 Q 0.7762409033203125 2.1939601499999997 0.7739984033203124 2.1962026499999996 Q 0.7717559033203125 2.1984451499999995 0.7683059033203125 2.1984451499999995 L 0.7510559033203125 2.1984451499999995 Q 0.7476059033203124 2.1984451499999995 0.7453634033203125 2.1962026499999996 Q 0.7431209033203124 2.1939601499999997 0.7431209033203124 2.1905101499999997 L 0.7431209033203124 2.0949451499999996 Q 0.7431209033203124 2.0707951499999995 0.7313909033203124 2.0571676499999993 Q 0.7196609033203125 2.0435401499999997 0.6968909033203124 2.0435401499999997 Q 0.6755009033203124 2.0435401499999997 0.6625634033203125 2.0571676499999993 Q 0.6496259033203124 2.0707951499999995 0.6496259033203124 2.0949451499999996 L 0.6496259033203124 2.1905101499999997 Q 0.6496259033203124 2.1939601499999997 0.6473834033203125 2.1962026499999996 Q 0.6451409033203125 2.1984451499999995 0.6416909033203124 2.1984451499999995 L 0.6244409033203124 2.1984451499999995 M 0.8369671362304687 2.1984451499999995 Q 0.8335171362304687 2.1984451499999995 0.8312746362304687 2.1962026499999996 Q 0.8290321362304687 2.1939601499999997 0.8290321362304687 2.1905101499999997 L 0.8290321362304687 2.0269801499999995 Q 0.8290321362304687 2.0235301499999996 0.8312746362304687 2.0212876499999997 Q 0.8335171362304687 2.0190451499999993 0.8369671362304687 2.0190451499999993 L 0.8535271362304687 2.0190451499999993 Q 0.8569771362304688 2.0190451499999993 0.8592196362304687 2.0212876499999997 Q 0.8614621362304687 2.0235301499999996 0.8614621362304687 2.0269801499999995 L 0.8614621362304687 2.1905101499999997 Q 0.8614621362304687 2.1939601499999997 0.8592196362304687 2.1962026499999996 Q 0.8569771362304688 2.1984451499999995 0.8535271362304687 2.1984451499999995 L 0.8369671362304687 2.1984451499999995 M 0.8342071362304687 1.9855801499999994 Q 0.8307571362304688 1.9855801499999994 0.8285146362304687 1.9833376499999995 Q 0.8262721362304687 1.9810951499999996 0.8262721362304687 1.9776451499999994 L 0.8262721362304687 1.9590151499999995 Q 0.8262721362304687 1.9555651499999995 0.8285146362304687 1.9531501499999995 Q 0.8307571362304688 1.9507351499999994 0.8342071362304687 1.9507351499999994 L 0.8559421362304688 1.9507351499999994 Q 0.8593921362304687 1.9507351499999994 0.8618071362304687 1.9531501499999995 Q 0.8642221362304687 1.9555651499999995 0.8642221362304687 1.9590151499999995 L 0.8642221362304687 1.9776451499999994 Q 0.8642221362304687 1.9810951499999996 0.8618071362304687 1.9833376499999995 Q 0.8593921362304687 1.9855801499999994 0.8559421362304688 1.9855801499999994 L 0.8342071362304687 1.9855801499999994 M 0.9270040502929687 2.1984451499999995 Q 0.9235540502929688 2.1984451499999995 0.9213115502929687 2.1962026499999996 Q 0.9190690502929688 2.1939601499999997 0.9190690502929688 2.1905101499999997 L 0.9190690502929688 2.0269801499999995 Q 0.9190690502929688 2.0235301499999996 0.9213115502929687 2.0212876499999997 Q 0.9235540502929688 2.0190451499999993 0.9270040502929687 2.0190451499999993 L 0.9432190502929687 2.0190451499999993 Q 0.9466690502929688 2.0190451499999993 0.9489115502929688 2.0212876499999997 Q 0.9511540502929687 2.0235301499999996 0.9511540502929687 2.0269801499999995 L 0.9511540502929687 2.0421601499999995 Q 0.9601240502929688 2.0304301499999995 0.9737515502929688 2.0230126499999996 Q 0.9873790502929688 2.0155951499999993 1.0087690502929687 2.0155951499999993 Q 1.0311940502929688 2.0155951499999993 1.0468915502929688 2.0254276499999997 Q 1.0625890502929687 2.0352601499999996 1.0706965502929688 2.0526826499999995 Q 1.0788040502929688 2.0701051499999994 1.0788040502929688 2.0932201499999996 L 1.0788040502929688 2.1905101499999997 Q 1.0788040502929688 2.1939601499999997 1.0765615502929688 2.1962026499999996 Q 1.0743190502929687 2.1984451499999995 1.0708690502929687 2.1984451499999995 L 1.0536190502929688 2.1984451499999995 Q 1.0501690502929688 2.1984451499999995 1.0479265502929687 2.1962026499999996 Q 1.0456840502929687 2.1939601499999997 1.0456840502929687 2.1905101499999997 L 1.0456840502929687 2.0949451499999996 Q 1.0456840502929687 2.0707951499999995 1.0339540502929687 2.0571676499999993 Q 1.0222240502929687 2.0435401499999997 0.9994540502929687 2.0435401499999997 Q 0.9780640502929687 2.0435401499999997 0.9651265502929688 2.0571676499999993 Q 0.9521890502929687 2.0707951499999995 0.9521890502929687 2.0949451499999996 L 0.9521890502929687 2.1905101499999997 Q 0.9521890502929687 2.1939601499999997 0.9499465502929687 2.1962026499999996 Q 0.9477040502929688 2.1984451499999995 0.9442540502929687 2.1984451499999995 L 0.9270040502929687 2.1984451499999995 M 1.205080283203125 2.2743451499999994 Q 1.181620283203125 2.2743451499999994 1.166612783203125 2.2681351499999995 Q 1.151605283203125 2.2619251499999997 1.143152783203125 2.2531276499999997 Q 1.134700283203125 2.2443301499999997 1.1310777832031251 2.2355326499999997 Q 1.127455283203125 2.2267351499999997 1.127110283203125 2.2215601499999997 Q 1.126765283203125 2.2181101499999993 1.129352783203125 2.2156951499999997 Q 1.1319402832031251 2.2132801499999997 1.135045283203125 2.2132801499999997 L 1.151605283203125 2.2132801499999997 Q 1.154710283203125 2.2132801499999997 1.156780283203125 2.2146601499999994 Q 1.158850283203125 2.2160401499999995 1.160230283203125 2.2205251499999994 Q 1.162300283203125 2.2257001499999993 1.166440283203125 2.2320826499999997 Q 1.1705802832031251 2.2384651499999997 1.179205283203125 2.2431226499999997 Q 1.1878302832031251 2.2477801499999996 1.2033552832031251 2.2477801499999996 Q 1.219570283203125 2.2477801499999996 1.230610283203125 2.2432951499999993 Q 1.241650283203125 2.2388101499999995 1.247342783203125 2.2281151499999994 Q 1.253035283203125 2.2174201499999997 1.253035283203125 2.1984451499999995 L 1.253035283203125 2.1749851499999995 Q 1.244755283203125 2.1856801499999996 1.231300283203125 2.1927526499999996 Q 1.217845283203125 2.1998251499999997 1.1974902832031251 2.1998251499999997 Q 1.1781702832031251 2.1998251499999997 1.164370283203125 2.1930976499999995 Q 1.150570283203125 2.1863701499999997 1.141772783203125 2.1748126499999993 Q 1.132975283203125 2.1632551499999995 1.128662783203125 2.1484201499999993 Q 1.1243502832031251 2.1335851499999996 1.123660283203125 2.1173701499999997 Q 1.123315283203125 2.1077101499999995 1.123660283203125 2.0983951499999995 Q 1.1243502832031251 2.0821801499999997 1.128662783203125 2.0673451499999995 Q 1.132975283203125 2.0525101499999994 1.141772783203125 2.0407801499999993 Q 1.150570283203125 2.0290501499999993 1.164370283203125 2.0223226499999996 Q 1.1781702832031251 2.0155951499999993 1.1974902832031251 2.0155951499999993 Q 1.218190283203125 2.0155951499999993 1.231817783203125 2.0231851499999993 Q 1.245445283203125 2.0307751499999993 1.254070283203125 2.0421601499999995 L 1.254070283203125 2.0273251499999994 Q 1.254070283203125 2.0238751499999994 1.2563127832031251 2.0214601499999993 Q 1.258555283203125 2.0190451499999993 1.262005283203125 2.0190451499999993 L 1.277875283203125 2.0190451499999993 Q 1.281325283203125 2.0190451499999993 1.283740283203125 2.0214601499999993 Q 1.286155283203125 2.0238751499999994 1.286155283203125 2.0273251499999994 L 1.286155283203125 2.1946501499999993 Q 1.286155283203125 2.2177651499999995 1.278392783203125 2.2357051499999994 Q 1.270630283203125 2.2536451499999997 1.252862783203125 2.2639951499999995 Q 1.235095283203125 2.2743451499999994 1.205080283203125 2.2743451499999994 M 1.204390283203125 2.1722251499999996 Q 1.221640283203125 2.1722251499999996 1.232162783203125 2.1642901499999994 Q 1.242685283203125 2.1563551499999996 1.247687783203125 2.1442801499999997 Q 1.252690283203125 2.1322051499999994 1.253035283203125 2.1197851499999993 Q 1.2533802832031251 2.1149551499999997 1.2533802832031251 2.1078826499999996 Q 1.2533802832031251 2.1008101499999996 1.253035283203125 2.0959801499999995 Q 1.252690283203125 2.0835601499999994 1.247687783203125 2.0714851499999996 Q 1.242685283203125 2.0594101499999997 1.232162783203125 2.0514751499999995 Q 1.221640283203125 2.0435401499999997 1.204390283203125 2.0435401499999997 Q 1.187140283203125 2.0435401499999997 1.176790283203125 2.0513026499999993 Q 1.166440283203125 2.0590651499999995 1.161955283203125 2.0716576499999997 Q 1.157470283203125 2.0842501499999995 1.156780283203125 2.0987401499999994 Q 1.156435283203125 2.1077101499999995 1.156780283203125 2.1170251499999995 Q 1.157470283203125 2.1315151499999994 1.161955283203125 2.1441076499999996 Q 1.166440283203125 2.1567001499999994 1.176790283203125 2.1644626499999995 Q 1.187140283203125 2.1722251499999996 1.204390283203125 2.1722251499999996 M 1.4369133764648439 2.1984451499999995 Q 1.4334633764648437 2.1984451499999995 1.4312208764648437 2.1962026499999996 Q 1.4289783764648438 2.1939601499999997 1.4289783764648438 2.1905101499999997 L 1.4289783764648438 2.0269801499999995 Q 1.4289783764648438 2.0235301499999996 1.4312208764648437 2.0212876499999997 Q 1.4334633764648437 2.0190451499999993 1.4369133764648439 2.0190451499999993 L 1.4534733764648438 2.0190451499999993 Q 1.4569233764648437 2.0190451499999993 1.4591658764648439 2.0212876499999997 Q 1.4614083764648438 2.0235301499999996 1.4614083764648438 2.0269801499999995 L 1.4614083764648438 2.1905101499999997 Q 1.4614083764648438 2.1939601499999997 1.4591658764648439 2.1962026499999996 Q 1.4569233764648437 2.1984451499999995 1.4534733764648438 2.1984451499999995 L 1.4369133764648439 2.1984451499999995 M 1.4341533764648438 1.9855801499999994 Q 1.4307033764648438 1.9855801499999994 1.4284608764648439 1.9833376499999995 Q 1.4262183764648437 1.9810951499999996 1.4262183764648437 1.9776451499999994 L 1.4262183764648437 1.9590151499999995 Q 1.4262183764648437 1.9555651499999995 1.4284608764648439 1.9531501499999995 Q 1.4307033764648438 1.9507351499999994 1.4341533764648438 1.9507351499999994 L 1.4558883764648438 1.9507351499999994 Q 1.4593383764648438 1.9507351499999994 1.4617533764648438 1.9531501499999995 Q 1.4641683764648437 1.9555651499999995 1.4641683764648437 1.9590151499999995 L 1.4641683764648437 1.9776451499999994 Q 1.4641683764648437 1.9810951499999996 1.4617533764648438 1.9833376499999995 Q 1.4593383764648438 1.9855801499999994 1.4558883764648438 1.9855801499999994 L 1.4341533764648438 1.9855801499999994 M 1.5269502905273438 2.1984451499999995 Q 1.5235002905273436 2.1984451499999995 1.5212577905273437 2.1962026499999996 Q 1.5190152905273437 2.1939601499999997 1.5190152905273437 2.1905101499999997 L 1.5190152905273437 2.0269801499999995 Q 1.5190152905273437 2.0235301499999996 1.5212577905273437 2.0212876499999997 Q 1.5235002905273436 2.0190451499999993 1.5269502905273438 2.0190451499999993 L 1.5431652905273436 2.0190451499999993 Q 1.5466152905273436 2.0190451499999993 1.5488577905273437 2.0212876499999997 Q 1.5511002905273437 2.0235301499999996 1.5511002905273437 2.0269801499999995 L 1.5511002905273437 2.0421601499999995 Q 1.5600702905273436 2.0304301499999995 1.5736977905273437 2.0230126499999996 Q 1.5873252905273436 2.0155951499999993 1.6087152905273436 2.0155951499999993 Q 1.6311402905273438 2.0155951499999993 1.6468377905273437 2.0254276499999997 Q 1.6625352905273436 2.0352601499999996 1.6706427905273438 2.0526826499999995 Q 1.6787502905273437 2.0701051499999994 1.6787502905273437 2.0932201499999996 L 1.6787502905273437 2.1905101499999997 Q 1.6787502905273437 2.1939601499999997 1.6765077905273438 2.1962026499999996 Q 1.6742652905273436 2.1984451499999995 1.6708152905273437 2.1984451499999995 L 1.6535652905273437 2.1984451499999995 Q 1.6501152905273437 2.1984451499999995 1.6478727905273436 2.1962026499999996 Q 1.6456302905273437 2.1939601499999997 1.6456302905273437 2.1905101499999997 L 1.6456302905273437 2.0949451499999996 Q 1.6456302905273437 2.0707951499999995 1.6339002905273436 2.0571676499999993 Q 1.6221702905273436 2.0435401499999997 1.5994002905273437 2.0435401499999997 Q 1.5780102905273437 2.0435401499999997 1.5650727905273436 2.0571676499999993 Q 1.5521352905273438 2.0707951499999995 1.5521352905273438 2.0949451499999996 L 1.5521352905273438 2.1905101499999997 Q 1.5521352905273438 2.1939601499999997 1.5498927905273436 2.1962026499999996 Q 1.5476502905273437 2.1984451499999995 1.5442002905273438 2.1984451499999995 L 1.5269502905273438 2.1984451499999995 M 1.7936415234375 2.2018951499999995 Q 1.7743215234375 2.2018951499999995 1.7605215234375 2.1970651499999994 Q 1.7467215234375 2.1922351499999997 1.7380965234374999 2.1853351499999993 Q 1.7294715234375 2.1784351499999994 1.7251590234375 2.1715351499999995 Q 1.7208465234374999 2.1646351499999996 1.7205015234374998 2.1604951499999996 Q 1.7201565234375 2.1567001499999994 1.7229165234375 2.1546301499999996 Q 1.7256765234375 2.1525601499999993 1.7284365234374999 2.1525601499999993 L 1.7439615234374999 2.1525601499999993 Q 1.7456865234374999 2.1525601499999993 1.7468940234374999 2.1530776499999997 Q 1.7481015234375 2.1535951499999997 1.7501715234375 2.1560101499999993 Q 1.7546565234375 2.1608401499999994 1.7601765234375 2.1656701499999995 Q 1.7656965234375 2.1705001499999996 1.7738040234374999 2.1736051499999993 Q 1.7819115234375 2.1767101499999995 1.7939865234374999 2.1767101499999995 Q 1.8115815234375 2.1767101499999995 1.8229665234374999 2.1699826499999997 Q 1.8343515234374999 2.1632551499999995 1.8343515234374999 2.1501451499999997 Q 1.8343515234374999 2.1415201499999994 1.8296940234374999 2.1363451499999995 Q 1.8250365234375 2.1311701499999995 1.8131340234375 2.1270301499999995 Q 1.8012315234375 2.1228901499999995 1.7805315234374999 2.1184051499999996 Q 1.7598315234375 2.1135751499999995 1.7477565234374999 2.1065026499999995 Q 1.7356815234375 2.0994301499999994 1.7305065234374999 2.0895976499999995 Q 1.7253315234375 2.0797651499999996 1.7253315234375 2.0673451499999995 Q 1.7253315234375 2.0545801499999996 1.7329215234375 2.0426776499999995 Q 1.7405115234375 2.0307751499999993 1.7551740234375 2.0231851499999993 Q 1.7698365234375 2.0155951499999993 1.7919165234374999 2.0155951499999993 Q 1.8098565234375 2.0155951499999993 1.8226215234374998 2.0200801499999996 Q 1.8353865234375 2.0245651499999995 1.8436665234375 2.0312926499999997 Q 1.8519465234374999 2.0380201499999995 1.8560865234375 2.0445751499999996 Q 1.8602265234375 2.0511301499999997 1.8605715234375 2.0556151499999995 Q 1.8609165234375 2.0590651499999995 1.8585015234375 2.0613076499999994 Q 1.8560865234375 2.0635501499999993 1.8529815234375 2.0635501499999993 L 1.8384915234374999 2.0635501499999993 Q 1.8360765234374998 2.0635501499999993 1.8345240234375 2.0625151499999994 Q 1.8329715234375 2.0614801499999995 1.8315915234375 2.0601001499999994 Q 1.8281415234375 2.0556151499999995 1.8234840234375 2.0511301499999997 Q 1.8188265234375 2.0466451499999994 1.8114090234375 2.0437126499999994 Q 1.8039915234375 2.0407801499999993 1.7919165234374999 2.0407801499999993 Q 1.7746665234374999 2.0407801499999993 1.7660415234375 2.0480251499999995 Q 1.7574165234374999 2.0552701499999997 1.7574165234374999 2.0663101499999996 Q 1.7574165234374999 2.0728651499999997 1.7612115234374999 2.0780401499999996 Q 1.7650065234374999 2.0832151499999996 1.7757015234375 2.0873551499999996 Q 1.7863965234374999 2.0914951499999996 1.8074415234374999 2.0963251499999993 Q 1.8302115234375 2.1008101499999996 1.8433215234375 2.1084001499999996 Q 1.8564315234375 2.1159901499999996 1.8619515234375 2.1259951499999996 Q 1.8674715234375 2.1360001499999997 1.8674715234375 2.1491101499999994 Q 1.8674715234375 2.1636001499999997 1.8591915234375 2.1756751499999996 Q 1.8509115234375 2.1877501499999994 1.8343515234374999 2.1948226499999994 Q 1.8177915234375 2.2018951499999995 1.7936415234375 2.2018951499999995 M 1.9806429785156248 2.1984451499999995 Q 1.9613229785156248 2.1984451499999995 1.949247978515625 2.1910276499999997 Q 1.9371729785156249 2.1836101499999994 1.931652978515625 2.1699826499999997 Q 1.926132978515625 2.1563551499999996 1.926132978515625 2.1377251499999996 L 1.926132978515625 2.0466451499999994 L 1.899222978515625 2.0466451499999994 Q 1.8957729785156248 2.0466451499999994 1.8935304785156248 2.0444026499999994 Q 1.891287978515625 2.0421601499999995 1.891287978515625 2.0387101499999996 L 1.891287978515625 2.0269801499999995 Q 1.891287978515625 2.0235301499999996 1.8935304785156248 2.0212876499999997 Q 1.8957729785156248 2.0190451499999993 1.899222978515625 2.0190451499999993 L 1.926132978515625 2.0190451499999993 L 1.926132978515625 1.9614301499999995 Q 1.926132978515625 1.9579801499999996 1.9283754785156249 1.9557376499999994 Q 1.9306179785156248 1.9534951499999995 1.934067978515625 1.9534951499999995 L 1.9502829785156248 1.9534951499999995 Q 1.9537329785156248 1.9534951499999995 1.955975478515625 1.9557376499999994 Q 1.9582179785156248 1.9579801499999996 1.9582179785156248 1.9614301499999995 L 1.9582179785156248 2.0190451499999993 L 2.000997978515625 2.0190451499999993 Q 2.0047929785156247 2.0190451499999993 2.006862978515625 2.0212876499999997 Q 2.0089329785156247 2.0235301499999996 2.0089329785156247 2.0269801499999995 L 2.0089329785156247 2.0387101499999996 Q 2.0089329785156247 2.0421601499999995 2.006862978515625 2.0444026499999994 Q 2.0047929785156247 2.0466451499999994 2.000997978515625 2.0466451499999994 L 1.9582179785156248 2.0466451499999994 L 1.9582179785156248 2.1353101499999996 Q 1.9582179785156248 2.1515251499999994 1.9637379785156248 2.1608401499999994 Q 1.9692579785156248 2.1701551499999994 1.9834029785156249 2.1701551499999994 L 2.004447978515625 2.1701551499999994 Q 2.007897978515625 2.1701551499999994 2.0101404785156247 2.1723976499999997 Q 2.0123829785156246 2.1746401499999997 2.0123829785156246 2.1780901499999996 L 2.0123829785156246 2.1905101499999997 Q 2.0123829785156246 2.1939601499999997 2.0101404785156247 2.1962026499999996 Q 2.007897978515625 2.1984451499999995 2.004447978515625 2.1984451499999995 L 1.9806429785156248 2.1984451499999995 M 2.0568849462890624 2.1984451499999995 Q 2.0534349462890624 2.1984451499999995 2.0511924462890625 2.1962026499999996 Q 2.048949946289062 2.1939601499999997 2.048949946289062 2.1905101499999997 L 2.048949946289062 2.0269801499999995 Q 2.048949946289062 2.0235301499999996 2.0511924462890625 2.0212876499999997 Q 2.0534349462890624 2.0190451499999993 2.0568849462890624 2.0190451499999993 L 2.0734449462890625 2.0190451499999993 Q 2.0768949462890625 2.0190451499999993 2.0791374462890624 2.0212876499999997 Q 2.0813799462890623 2.0235301499999996 2.0813799462890623 2.0269801499999995 L 2.0813799462890623 2.1905101499999997 Q 2.0813799462890623 2.1939601499999997 2.0791374462890624 2.1962026499999996 Q 2.0768949462890625 2.1984451499999995 2.0734449462890625 2.1984451499999995 L 2.0568849462890624 2.1984451499999995 M 2.0541249462890625 1.9855801499999994 Q 2.050674946289062 1.9855801499999994 2.048432446289062 1.9833376499999995 Q 2.0461899462890623 1.9810951499999996 2.0461899462890623 1.9776451499999994 L 2.0461899462890623 1.9590151499999995 Q 2.0461899462890623 1.9555651499999995 2.048432446289062 1.9531501499999995 Q 2.050674946289062 1.9507351499999994 2.0541249462890625 1.9507351499999994 L 2.075859946289062 1.9507351499999994 Q 2.0793099462890625 1.9507351499999994 2.081724946289062 1.9531501499999995 Q 2.084139946289062 1.9555651499999995 2.084139946289062 1.9590151499999995 L 2.084139946289062 1.9776451499999994 Q 2.084139946289062 1.9810951499999996 2.081724946289062 1.9833376499999995 Q 2.0793099462890625 1.9855801499999994 2.075859946289062 1.9855801499999994 L 2.0541249462890625 1.9855801499999994 M 2.205926462402344 2.1984451499999995 Q 2.186606462402344 2.1984451499999995 2.1745314624023435 2.1910276499999997 Q 2.1624564624023437 2.1836101499999994 2.1569364624023435 2.1699826499999997 Q 2.1514164624023437 2.1563551499999996 2.1514164624023437 2.1377251499999996 L 2.1514164624023437 2.0466451499999994 L 2.1245064624023438 2.0466451499999994 Q 2.121056462402344 2.0466451499999994 2.118813962402344 2.0444026499999994 Q 2.1165714624023435 2.0421601499999995 2.1165714624023435 2.0387101499999996 L 2.1165714624023435 2.0269801499999995 Q 2.1165714624023435 2.0235301499999996 2.118813962402344 2.0212876499999997 Q 2.121056462402344 2.0190451499999993 2.1245064624023438 2.0190451499999993 L 2.1514164624023437 2.0190451499999993 L 2.1514164624023437 1.9614301499999995 Q 2.1514164624023437 1.9579801499999996 2.1536589624023437 1.9557376499999994 Q 2.1559014624023436 1.9534951499999995 2.1593514624023435 1.9534951499999995 L 2.175566462402344 1.9534951499999995 Q 2.179016462402344 1.9534951499999995 2.1812589624023437 1.9557376499999994 Q 2.1835014624023437 1.9579801499999996 2.1835014624023437 1.9614301499999995 L 2.1835014624023437 2.0190451499999993 L 2.2262814624023437 2.0190451499999993 Q 2.2300764624023435 2.0190451499999993 2.2321464624023437 2.0212876499999997 Q 2.2342164624023435 2.0235301499999996 2.2342164624023435 2.0269801499999995 L 2.2342164624023435 2.0387101499999996 Q 2.2342164624023435 2.0421601499999995 2.2321464624023437 2.0444026499999994 Q 2.2300764624023435 2.0466451499999994 2.2262814624023437 2.0466451499999994 L 2.1835014624023437 2.0466451499999994 L 2.1835014624023437 2.1353101499999996 Q 2.1835014624023437 2.1515251499999994 2.189021462402344 2.1608401499999994 Q 2.1945414624023436 2.1701551499999994 2.2086864624023437 2.1701551499999994 L 2.2297314624023437 2.1701551499999994 Q 2.2331814624023436 2.1701551499999994 2.2354239624023435 2.1723976499999997 Q 2.237666462402344 2.1746401499999997 2.237666462402344 2.1780901499999996 L 2.237666462402344 2.1905101499999997 Q 2.237666462402344 2.1939601499999997 2.2354239624023435 2.1962026499999996 Q 2.2331814624023436 2.1984451499999995 2.2297314624023437 2.1984451499999995 L 2.205926462402344 2.1984451499999995 M 2.341163430175781 2.2018951499999995 Q 2.3190834301757812 2.2018951499999995 2.303730930175781 2.1920626499999996 Q 2.288378430175781 2.1822301499999996 2.280443430175781 2.1646351499999996 Q 2.272508430175781 2.1470401499999996 2.272508430175781 2.1242701499999996 L 2.272508430175781 2.0269801499999995 Q 2.272508430175781 2.0235301499999996 2.274750930175781 2.0212876499999997 Q 2.2769934301757813 2.0190451499999993 2.280443430175781 2.0190451499999993 L 2.297693430175781 2.0190451499999993 Q 2.301143430175781 2.0190451499999993 2.3033859301757813 2.0212876499999997 Q 2.3056284301757812 2.0235301499999996 2.3056284301757812 2.0269801499999995 L 2.3056284301757812 2.1225451499999997 Q 2.3056284301757812 2.1739501499999996 2.350478430175781 2.1739501499999996 Q 2.3718684301757813 2.1739501499999996 2.384805930175781 2.1603226499999995 Q 2.397743430175781 2.1466951499999993 2.397743430175781 2.1225451499999997 L 2.397743430175781 2.0269801499999995 Q 2.397743430175781 2.0235301499999996 2.399985930175781 2.0212876499999997 Q 2.4022284301757812 2.0190451499999993 2.405678430175781 2.0190451499999993 L 2.422928430175781 2.0190451499999993 Q 2.426378430175781 2.0190451499999993 2.428448430175781 2.0212876499999997 Q 2.430518430175781 2.0235301499999996 2.430518430175781 2.0269801499999995 L 2.430518430175781 2.1905101499999997 Q 2.430518430175781 2.1939601499999997 2.428448430175781 2.1962026499999996 Q 2.426378430175781 2.1984451499999995 2.422928430175781 2.1984451499999995 L 2.406713430175781 2.1984451499999995 Q 2.403263430175781 2.1984451499999995 2.401020930175781 2.1962026499999996 Q 2.3987784301757813 2.1939601499999997 2.3987784301757813 2.1905101499999997 L 2.3987784301757813 2.1753301499999993 Q 2.3894634301757813 2.1874051499999996 2.376180930175781 2.1946501499999993 Q 2.362898430175781 2.2018951499999995 2.341163430175781 2.2018951499999995 M 2.555404892578125 2.1984451499999995 Q 2.536084892578125 2.1984451499999995 2.5240098925781247 2.1910276499999997 Q 2.511934892578125 2.1836101499999994 2.5064148925781247 2.1699826499999997 Q 2.500894892578125 2.1563551499999996 2.500894892578125 2.1377251499999996 L 2.500894892578125 2.0466451499999994 L 2.473984892578125 2.0466451499999994 Q 2.470534892578125 2.0466451499999994 2.468292392578125 2.0444026499999994 Q 2.4660498925781247 2.0421601499999995 2.4660498925781247 2.0387101499999996 L 2.4660498925781247 2.0269801499999995 Q 2.4660498925781247 2.0235301499999996 2.468292392578125 2.0212876499999997 Q 2.470534892578125 2.0190451499999993 2.473984892578125 2.0190451499999993 L 2.500894892578125 2.0190451499999993 L 2.500894892578125 1.9614301499999995 Q 2.500894892578125 1.9579801499999996 2.503137392578125 1.9557376499999994 Q 2.5053798925781248 1.9534951499999995 2.5088298925781247 1.9534951499999995 L 2.525044892578125 1.9534951499999995 Q 2.528494892578125 1.9534951499999995 2.530737392578125 1.9557376499999994 Q 2.532979892578125 1.9579801499999996 2.532979892578125 1.9614301499999995 L 2.532979892578125 2.0190451499999993 L 2.575759892578125 2.0190451499999993 Q 2.5795548925781246 2.0190451499999993 2.581624892578125 2.0212876499999997 Q 2.5836948925781247 2.0235301499999996 2.5836948925781247 2.0269801499999995 L 2.5836948925781247 2.0387101499999996 Q 2.5836948925781247 2.0421601499999995 2.581624892578125 2.0444026499999994 Q 2.5795548925781246 2.0466451499999994 2.575759892578125 2.0466451499999994 L 2.532979892578125 2.0466451499999994 L 2.532979892578125 2.1353101499999996 Q 2.532979892578125 2.1515251499999994 2.538499892578125 2.1608401499999994 Q 2.5440198925781248 2.1701551499999994 2.558164892578125 2.1701551499999994 L 2.579209892578125 2.1701551499999994 Q 2.582659892578125 2.1701551499999994 2.5849023925781247 2.1723976499999997 Q 2.5871448925781246 2.1746401499999997 2.5871448925781246 2.1780901499999996 L 2.5871448925781246 2.1905101499999997 Q 2.5871448925781246 2.1939601499999997 2.5849023925781247 2.1962026499999996 Q 2.582659892578125 2.1984451499999995 2.579209892578125 2.1984451499999995 L 2.555404892578125 2.1984451499999995 M 2.6954718603515624 2.2018951499999995 Q 2.6595918603515623 2.2018951499999995 2.6385468603515623 2.1799876499999997 Q 2.6175018603515623 2.1580801499999995 2.6154318603515625 2.1201301499999996 Q 2.6150868603515622 2.1156451499999993 2.6150868603515622 2.1085726499999997 Q 2.6150868603515622 2.1015001499999997 2.6154318603515625 2.0970151499999994 Q 2.616811860351562 2.0725201499999995 2.6268168603515623 2.0540626499999997 Q 2.6368218603515623 2.0356051499999994 2.654244360351562 2.0256001499999994 Q 2.671666860351562 2.0155951499999993 2.695126860351562 2.0155951499999993 Q 2.7213468603515625 2.0155951499999993 2.739114360351562 2.0266351499999997 Q 2.7568818603515624 2.0376751499999997 2.7661968603515623 2.0580301499999996 Q 2.7755118603515623 2.0783851499999995 2.7755118603515623 2.1056401499999997 L 2.7755118603515623 2.1115051499999997 Q 2.7755118603515623 2.1153001499999995 2.7732693603515624 2.1173701499999997 Q 2.7710268603515624 2.1194401499999995 2.7675768603515625 2.1194401499999995 L 2.6482068603515625 2.1194401499999995 Q 2.6482068603515625 2.1197851499999993 2.6482068603515625 2.1208201499999997 Q 2.6482068603515625 2.1218551499999996 2.6482068603515625 2.1225451499999997 Q 2.648896860351562 2.1366901499999997 2.6544168603515623 2.1489376499999997 Q 2.659936860351562 2.1611851499999997 2.670459360351562 2.1687751499999997 Q 2.6809818603515625 2.1763651499999996 2.695126860351562 2.1763651499999996 Q 2.7075468603515622 2.1763651499999996 2.7158268603515623 2.1725701499999994 Q 2.7241068603515624 2.1687751499999997 2.7292818603515623 2.1641176499999997 Q 2.734456860351562 2.1594601499999997 2.736181860351562 2.1567001499999994 Q 2.7392868603515623 2.1525601499999993 2.7410118603515623 2.1516976499999996 Q 2.7427368603515623 2.1508351499999994 2.7465318603515625 2.1508351499999994 L 2.7634368603515624 2.1508351499999994 Q 2.766541860351562 2.1508351499999994 2.768784360351562 2.1527326499999995 Q 2.7710268603515624 2.1546301499999996 2.770681860351562 2.1580801499999995 Q 2.7703368603515623 2.1632551499999995 2.7651618603515624 2.1706726499999993 Q 2.7599868603515625 2.1780901499999996 2.7504993603515624 2.1853351499999993 Q 2.7410118603515623 2.1925801499999995 2.7270393603515624 2.1972376499999995 Q 2.7130668603515624 2.2018951499999995 2.6954718603515624 2.2018951499999995 M 2.6482068603515625 2.0956351499999997 L 2.7427368603515623 2.0956351499999997 L 2.7427368603515623 2.0946001499999993 Q 2.7427368603515623 2.0790751499999995 2.7370443603515624 2.0670001499999997 Q 2.731351860351562 2.0549251499999994 2.7206568603515624 2.0478526499999994 Q 2.7099618603515623 2.0407801499999993 2.695126860351562 2.0407801499999993 Q 2.6802918603515624 2.0407801499999993 2.6697693603515624 2.0478526499999994 Q 2.6592468603515624 2.0549251499999994 2.6537268603515622 2.0670001499999997 Q 2.6482068603515625 2.0790751499999995 2.6482068603515625 2.0946001499999993 L 2.6482068603515625 2.0956351499999997 M 2.9162693334960936 2.1984451499999995 Q 2.9128193334960937 2.1984451499999995 2.9105768334960938 2.1962026499999996 Q 2.9083343334960934 2.1939601499999997 2.9083343334960934 2.1905101499999997 L 2.9083343334960934 2.0269801499999995 Q 2.9083343334960934 2.0235301499999996 2.9105768334960938 2.0212876499999997 Q 2.9128193334960937 2.0190451499999993 2.9162693334960936 2.0190451499999993 L 2.9328293334960938 2.0190451499999993 Q 2.9362793334960937 2.0190451499999993 2.9385218334960936 2.0212876499999997 Q 2.9407643334960936 2.0235301499999996 2.9407643334960936 2.0269801499999995 L 2.9407643334960936 2.1905101499999997 Q 2.9407643334960936 2.1939601499999997 2.9385218334960936 2.1962026499999996 Q 2.9362793334960937 2.1984451499999995 2.9328293334960938 2.1984451499999995 L 2.9162693334960936 2.1984451499999995 M 2.9135093334960938 1.9855801499999994 Q 2.9100593334960934 1.9855801499999994 2.9078168334960934 1.9833376499999995 Q 2.9055743334960935 1.9810951499999996 2.9055743334960935 1.9776451499999994 L 2.9055743334960935 1.9590151499999995 Q 2.9055743334960935 1.9555651499999995 2.9078168334960934 1.9531501499999995 Q 2.9100593334960934 1.9507351499999994 2.9135093334960938 1.9507351499999994 L 2.9352443334960934 1.9507351499999994 Q 2.9386943334960938 1.9507351499999994 2.9411093334960934 1.9531501499999995 Q 2.9435243334960934 1.9555651499999995 2.9435243334960934 1.9590151499999995 L 2.9435243334960934 1.9776451499999994 Q 2.9435243334960934 1.9810951499999996 2.9411093334960934 1.9833376499999995 Q 2.9386943334960938 1.9855801499999994 2.9352443334960934 1.9855801499999994 L 2.9135093334960938 1.9855801499999994 M 3.0063062475585935 2.1984451499999995 Q 3.0028562475585936 2.1984451499999995 3.0006137475585937 2.1962026499999996 Q 2.9983712475585933 2.1939601499999997 2.9983712475585933 2.1905101499999997 L 2.9983712475585933 2.0269801499999995 Q 2.9983712475585933 2.0235301499999996 3.0006137475585937 2.0212876499999997 Q 3.0028562475585936 2.0190451499999993 3.0063062475585935 2.0190451499999993 L 3.0225212475585934 2.0190451499999993 Q 3.0259712475585934 2.0190451499999993 3.0282137475585933 2.0212876499999997 Q 3.0304562475585937 2.0235301499999996 3.0304562475585937 2.0269801499999995 L 3.0304562475585937 2.0421601499999995 Q 3.0394262475585934 2.0304301499999995 3.0530537475585935 2.0230126499999996 Q 3.0666812475585936 2.0155951499999993 3.0880712475585934 2.0155951499999993 Q 3.1104962475585936 2.0155951499999993 3.1261937475585935 2.0254276499999997 Q 3.1418912475585934 2.0352601499999996 3.1499987475585933 2.0526826499999995 Q 3.1581062475585933 2.0701051499999994 3.1581062475585933 2.0932201499999996 L 3.1581062475585933 2.1905101499999997 Q 3.1581062475585933 2.1939601499999997 3.1558637475585933 2.1962026499999996 Q 3.1536212475585934 2.1984451499999995 3.1501712475585935 2.1984451499999995 L 3.1329212475585937 2.1984451499999995 Q 3.1294712475585933 2.1984451499999995 3.1272287475585934 2.1962026499999996 Q 3.1249862475585934 2.1939601499999997 3.1249862475585934 2.1905101499999997 L 3.1249862475585934 2.0949451499999996 Q 3.1249862475585934 2.0707951499999995 3.1132562475585934 2.0571676499999993 Q 3.1015262475585934 2.0435401499999997 3.0787562475585935 2.0435401499999997 Q 3.0573662475585937 2.0435401499999997 3.0444287475585936 2.0571676499999993 Q 3.0314912475585936 2.0707951499999995 3.0314912475585936 2.0949451499999996 L 3.0314912475585936 2.1905101499999997 Q 3.0314912475585936 2.1939601499999997 3.0292487475585936 2.1962026499999996 Q 3.0270062475585933 2.1984451499999995 3.0235562475585933 2.1984451499999995 L 3.0063062475585935 2.1984451499999995 M 3.306805795898437 2.1984451499999995 Q 3.303355795898437 2.1984451499999995 3.3011132958984373 2.1962026499999996 Q 3.298870795898437 2.1939601499999997 3.298870795898437 2.1905101499999997 L 3.298870795898437 2.0269801499999995 Q 3.298870795898437 2.0235301499999996 3.3011132958984373 2.0212876499999997 Q 3.303355795898437 2.0190451499999993 3.306805795898437 2.0190451499999993 L 3.322330795898437 2.0190451499999993 Q 3.325780795898437 2.0190451499999993 3.3280232958984373 2.0212876499999997 Q 3.330265795898437 2.0235301499999996 3.330265795898437 2.0269801499999995 L 3.330265795898437 2.0390551499999994 Q 3.338200795898437 2.0283601499999997 3.3502757958984373 2.0219776499999993 Q 3.362350795898437 2.0155951499999993 3.379255795898437 2.0155951499999993 Q 3.418240795898437 2.0152501499999995 3.434455795898437 2.0473351499999994 Q 3.442390795898437 2.0328451499999995 3.457570795898437 2.0242201499999997 Q 3.472750795898437 2.0155951499999993 3.492070795898437 2.0155951499999993 Q 3.5100107958984372 2.0155951499999993 3.5246732958984373 2.0238751499999994 Q 3.5393357958984373 2.0321551499999995 3.547788295898437 2.0488876499999997 Q 3.5562407958984372 2.0656201499999995 3.5562407958984372 2.0908051499999996 L 3.5562407958984372 2.1905101499999997 Q 3.5562407958984372 2.1939601499999997 3.5539982958984373 2.1962026499999996 Q 3.551755795898437 2.1984451499999995 3.548305795898437 2.1984451499999995 L 3.532090795898437 2.1984451499999995 Q 3.528640795898437 2.1984451499999995 3.5263982958984372 2.1962026499999996 Q 3.5241557958984373 2.1939601499999997 3.5241557958984373 2.1905101499999997 L 3.5241557958984373 2.0939101499999997 Q 3.5241557958984373 2.0745901499999997 3.518635795898437 2.0635501499999993 Q 3.513115795898437 2.0525101499999994 3.503800795898437 2.0480251499999995 Q 3.494485795898437 2.0435401499999997 3.483445795898437 2.0435401499999997 Q 3.474475795898437 2.0435401499999997 3.465160795898437 2.0480251499999995 Q 3.455845795898437 2.0525101499999994 3.4498082958984373 2.0635501499999993 Q 3.443770795898437 2.0745901499999997 3.443770795898437 2.0939101499999997 L 3.443770795898437 2.1905101499999997 Q 3.443770795898437 2.1939601499999997 3.4415282958984372 2.1962026499999996 Q 3.439285795898437 2.1984451499999995 3.435835795898437 2.1984451499999995 L 3.419620795898437 2.1984451499999995 Q 3.416170795898437 2.1984451499999995 3.413928295898437 2.1962026499999996 Q 3.4116857958984372 2.1939601499999997 3.4116857958984372 2.1905101499999997 L 3.4116857958984372 2.0939101499999997 Q 3.4116857958984372 2.0745901499999997 3.4058207958984372 2.0635501499999993 Q 3.399955795898437 2.0525101499999994 3.3906407958984373 2.0480251499999995 Q 3.3813257958984373 2.0435401499999997 3.370975795898437 2.0435401499999997 Q 3.362005795898437 2.0435401499999997 3.352690795898437 2.0480251499999995 Q 3.343375795898437 2.0525101499999994 3.3373382958984372 2.0635501499999993 Q 3.331300795898437 2.0745901499999997 3.331300795898437 2.0935651499999994 L 3.331300795898437 2.1905101499999997 Q 3.331300795898437 2.1939601499999997 3.329058295898437 2.1962026499999996 Q 3.3268157958984372 2.1984451499999995 3.3233657958984373 2.1984451499999995 L 3.306805795898437 2.1984451499999995 M 3.6590428784179685 2.2018951499999995 Q 3.6417928784179683 2.2018951499999995 3.6276478784179687 2.1949951499999996 Q 3.6135028784179686 2.1880951499999997 3.6048778784179683 2.1763651499999996 Q 3.5962528784179684 2.1646351499999996 3.5962528784179684 2.1498001499999995 Q 3.5962528784179684 2.1259951499999996 3.6155728784179684 2.1118501499999995 Q 3.6348928784179684 2.0977051499999995 3.6659428784179684 2.0932201499999996 L 3.7173478784179683 2.0859751499999994 L 3.7173478784179683 2.0759701499999994 Q 3.7173478784179683 2.0594101499999997 3.7078603784179682 2.0500951499999998 Q 3.6983728784179686 2.0407801499999993 3.6769828784179683 2.0407801499999993 Q 3.6618028784179684 2.0407801499999993 3.6521428784179686 2.0469901499999996 Q 3.6424828784179684 2.0532001499999994 3.6386878784179686 2.0628601499999997 Q 3.6366178784179684 2.0680351499999996 3.6314428784179684 2.0680351499999996 L 3.6159178784179686 2.0680351499999996 Q 3.6121228784179684 2.0680351499999996 3.6102253784179683 2.0657926499999997 Q 3.6083278784179686 2.0635501499999993 3.6083278784179686 2.0604451499999996 Q 3.6083278784179686 2.0552701499999997 3.6122953784179685 2.0476801499999997 Q 3.6162628784179685 2.0400901499999997 3.6245428784179685 2.0328451499999995 Q 3.6328228784179686 2.0256001499999994 3.6457603784179686 2.0205976499999996 Q 3.6586978784179687 2.0155951499999993 3.6773278784179686 2.0155951499999993 Q 3.6980278784179683 2.0155951499999993 3.7121728784179684 2.0209426499999994 Q 3.7263178784179685 2.0262901499999995 3.7344253784179684 2.0352601499999996 Q 3.7425328784179683 2.0442301499999997 3.7461553784179684 2.0556151499999995 Q 3.7497778784179685 2.0670001499999997 3.7497778784179685 2.0787301499999997 L 3.7497778784179685 2.1905101499999997 Q 3.7497778784179685 2.1939601499999997 3.7475353784179686 2.1962026499999996 Q 3.7452928784179687 2.1984451499999995 3.7418428784179683 2.1984451499999995 L 3.7259728784179686 2.1984451499999995 Q 3.7221778784179684 2.1984451499999995 3.7201078784179686 2.1962026499999996 Q 3.7180378784179684 2.1939601499999997 3.7180378784179684 2.1905101499999997 L 3.7180378784179684 2.1756751499999996 Q 3.7135528784179686 2.1818851499999994 3.7059628784179686 2.1879226499999995 Q 3.6983728784179686 2.1939601499999997 3.6869878784179684 2.1979276499999996 Q 3.6756028784179686 2.2018951499999995 3.6590428784179685 2.2018951499999995 M 3.6662878784179687 2.1760201499999994 Q 3.6804328784179683 2.1760201499999994 3.6921628784179683 2.1699826499999997 Q 3.7038928784179683 2.1639451499999995 3.7106203784179685 2.1511801499999996 Q 3.7173478784179683 2.1384151499999997 3.7173478784179683 2.1190951499999997 L 3.7173478784179683 2.1094351499999995 L 3.6773278784179686 2.1153001499999995 Q 3.6528328784179687 2.1187501499999994 3.6404128784179686 2.1268576499999994 Q 3.6279928784179685 2.1349651499999993 3.6279928784179685 2.1473851499999994 Q 3.6279928784179685 2.1570451499999996 3.6336853784179683 2.1634276499999996 Q 3.6393778784179682 2.1698101499999995 3.6481753784179682 2.1729151499999997 Q 3.6569728784179683 2.1760201499999994 3.6662878784179687 2.1760201499999994 M 3.871216867675781 2.1984451499999995 Q 3.851896867675781 2.1984451499999995 3.8398218676757807 2.1910276499999997 Q 3.827746867675781 2.1836101499999994 3.8222268676757807 2.1699826499999997 Q 3.816706867675781 2.1563551499999996 3.816706867675781 2.1377251499999996 L 3.816706867675781 2.0466451499999994 L 3.789796867675781 2.0466451499999994 Q 3.786346867675781 2.0466451499999994 3.784104367675781 2.0444026499999994 Q 3.7818618676757807 2.0421601499999995 3.7818618676757807 2.0387101499999996 L 3.7818618676757807 2.0269801499999995 Q 3.7818618676757807 2.0235301499999996 3.784104367675781 2.0212876499999997 Q 3.786346867675781 2.0190451499999993 3.789796867675781 2.0190451499999993 L 3.816706867675781 2.0190451499999993 L 3.816706867675781 1.9614301499999995 Q 3.816706867675781 1.9579801499999996 3.818949367675781 1.9557376499999994 Q 3.821191867675781 1.9534951499999995 3.8246418676757807 1.9534951499999995 L 3.840856867675781 1.9534951499999995 Q 3.844306867675781 1.9534951499999995 3.846549367675781 1.9557376499999994 Q 3.848791867675781 1.9579801499999996 3.848791867675781 1.9614301499999995 L 3.848791867675781 2.0190451499999993 L 3.891571867675781 2.0190451499999993 Q 3.8953668676757807 2.0190451499999993 3.897436867675781 2.0212876499999997 Q 3.8995068676757807 2.0235301499999996 3.8995068676757807 2.0269801499999995 L 3.8995068676757807 2.0387101499999996 Q 3.8995068676757807 2.0421601499999995 3.897436867675781 2.0444026499999994 Q 3.8953668676757807 2.0466451499999994 3.891571867675781 2.0466451499999994 L 3.848791867675781 2.0466451499999994 L 3.848791867675781 2.1353101499999996 Q 3.848791867675781 2.1515251499999994 3.854311867675781 2.1608401499999994 Q 3.859831867675781 2.1701551499999994 3.873976867675781 2.1701551499999994 L 3.895021867675781 2.1701551499999994 Q 3.898471867675781 2.1701551499999994 3.9007143676757807 2.1723976499999997 Q 3.9029568676757807 2.1746401499999997 3.9029568676757807 2.1780901499999996 L 3.9029568676757807 2.1905101499999997 Q 3.9029568676757807 2.1939601499999997 3.9007143676757807 2.1962026499999996 Q 3.898471867675781 2.1984451499999995 3.895021867675781 2.1984451499999995 L 3.871216867675781 2.1984451499999995 M 3.947803835449218 2.1984451499999995 Q 3.9443538354492182 2.1984451499999995 3.9421113354492183 2.1962026499999996 Q 3.9398688354492184 2.1939601499999997 3.9398688354492184 2.1905101499999997 L 3.9398688354492184 1.9614301499999995 Q 3.9398688354492184 1.9579801499999996 3.9421113354492183 1.9557376499999994 Q 3.9443538354492182 1.9534951499999995 3.947803835449218 1.9534951499999995 L 3.9650538354492184 1.9534951499999995 Q 3.968848835449218 1.9534951499999995 3.9709188354492184 1.9557376499999994 Q 3.972988835449218 1.9579801499999996 3.972988835449218 1.9614301499999995 L 3.972988835449218 2.0418151499999997 Q 3.982303835449218 2.0300851499999997 3.995758835449218 2.0228401499999995 Q 4.009213835449218 2.0155951499999993 4.029913835449218 2.0155951499999993 Q 4.052338835449218 2.0155951499999993 4.068036335449218 2.0254276499999997 Q 4.083733835449218 2.0352601499999996 4.091841335449218 2.0526826499999995 Q 4.099948835449219 2.0701051499999994 4.099948835449219 2.0932201499999996 L 4.099948835449219 2.1905101499999997 Q 4.099948835449219 2.1939601499999997 4.097878835449218 2.1962026499999996 Q 4.095808835449218 2.1984451499999995 4.092013835449218 2.1984451499999995 L 4.074763835449218 2.1984451499999995 Q 4.071313835449218 2.1984451499999995 4.069071335449218 2.1962026499999996 Q 4.066828835449218 2.1939601499999997 4.066828835449218 2.1905101499999997 L 4.066828835449218 2.0949451499999996 Q 4.066828835449218 2.0707951499999995 4.055098835449218 2.0571676499999993 Q 4.043368835449218 2.0435401499999997 4.020598835449218 2.0435401499999997 Q 3.999208835449218 2.0435401499999997 3.9860988354492184 2.0571676499999993 Q 3.972988835449218 2.0707951499999995 3.972988835449218 2.0949451499999996 L 3.972988835449218 2.1905101499999997 Q 3.972988835449218 2.1939601499999997 3.9709188354492184 2.1962026499999996 Q 3.968848835449218 2.1984451499999995 3.9650538354492184 2.1984451499999995 L 3.947803835449218 2.1984451499999995 M 4.2200118676757805 2.2018951499999995 Q 4.197931867675781 2.2018951499999995 4.18257936767578 2.1920626499999996 Q 4.16722686767578 2.1822301499999996 4.159291867675781 2.1646351499999996 Q 4.151356867675781 2.1470401499999996 4.151356867675781 2.1242701499999996 L 4.151356867675781 2.0269801499999995 Q 4.151356867675781 2.0235301499999996 4.15359936767578 2.0212876499999997 Q 4.155841867675781 2.0190451499999993 4.159291867675781 2.0190451499999993 L 4.17654186767578 2.0190451499999993 Q 4.17999186767578 2.0190451499999993 4.182234367675781 2.0212876499999997 Q 4.18447686767578 2.0235301499999996 4.18447686767578 2.0269801499999995 L 4.18447686767578 2.1225451499999997 Q 4.18447686767578 2.1739501499999996 4.2293268676757805 2.1739501499999996 Q 4.250716867675781 2.1739501499999996 4.26365436767578 2.1603226499999995 Q 4.276591867675781 2.1466951499999993 4.276591867675781 2.1225451499999997 L 4.276591867675781 2.0269801499999995 Q 4.276591867675781 2.0235301499999996 4.27883436767578 2.0212876499999997 Q 4.281076867675781 2.0190451499999993 4.284526867675781 2.0190451499999993 L 4.30177686767578 2.0190451499999993 Q 4.30522686767578 2.0190451499999993 4.30729686767578 2.0212876499999997 Q 4.309366867675781 2.0235301499999996 4.309366867675781 2.0269801499999995 L 4.309366867675781 2.1905101499999997 Q 4.309366867675781 2.1939601499999997 4.30729686767578 2.1962026499999996 Q 4.30522686767578 2.1984451499999995 4.30177686767578 2.1984451499999995 L 4.2855618676757805 2.1984451499999995 Q 4.282111867675781 2.1984451499999995 4.27986936767578 2.1962026499999996 Q 4.277626867675781 2.1939601499999997 4.277626867675781 2.1905101499999997 L 4.277626867675781 2.1753301499999993 Q 4.268311867675781 2.1874051499999996 4.255029367675781 2.1946501499999993 Q 4.24174686767578 2.2018951499999995 4.2200118676757805 2.2018951499999995 M 4.372153330078124 2.1984451499999995 Q 4.368703330078124 2.1984451499999995 4.3664608300781245 2.1962026499999996 Q 4.364218330078124 2.1939601499999997 4.364218330078124 2.1905101499999997 L 4.364218330078124 2.0273251499999994 Q 4.364218330078124 2.0238751499999994 4.3664608300781245 2.0214601499999993 Q 4.368703330078124 2.0190451499999993 4.372153330078124 2.0190451499999993 L 4.388023330078124 2.0190451499999993 Q 4.391473330078124 2.0190451499999993 4.393888330078124 2.0214601499999993 Q 4.3963033300781245 2.0238751499999994 4.3963033300781245 2.0273251499999994 L 4.3963033300781245 2.0425051499999993 Q 4.403203330078124 2.0307751499999993 4.415278330078125 2.0249101499999993 Q 4.427353330078124 2.0190451499999993 4.444603330078125 2.0190451499999993 L 4.458058330078124 2.0190451499999993 Q 4.461508330078124 2.0190451499999993 4.463750830078125 2.0212876499999997 Q 4.465993330078124 2.0235301499999996 4.465993330078124 2.0269801499999995 L 4.465993330078124 2.0411251499999996 Q 4.465993330078124 2.0445751499999996 4.463750830078125 2.0466451499999994 Q 4.461508330078124 2.0487151499999996 4.458058330078124 2.0487151499999996 L 4.4373583300781245 2.0487151499999996 Q 4.418728330078125 2.0487151499999996 4.4080333300781245 2.0595826499999994 Q 4.397338330078124 2.0704501499999997 4.397338330078124 2.0890801499999996 L 4.397338330078124 2.1905101499999997 Q 4.397338330078124 2.1939601499999997 4.394923330078124 2.1962026499999996 Q 4.392508330078124 2.1984451499999995 4.389058330078124 2.1984451499999995 L 4.372153330078124 2.1984451499999995 M 4.546036530761717 2.2018951499999995 Q 4.528786530761717 2.2018951499999995 4.514641530761717 2.1949951499999996 Q 4.500496530761717 2.1880951499999997 4.491871530761718 2.1763651499999996 Q 4.4832465307617175 2.1646351499999996 4.4832465307617175 2.1498001499999995 Q 4.4832465307617175 2.1259951499999996 4.502566530761718 2.1118501499999995 Q 4.5218865307617175 2.0977051499999995 4.552936530761718 2.0932201499999996 L 4.604341530761718 2.0859751499999994 L 4.604341530761718 2.0759701499999994 Q 4.604341530761718 2.0594101499999997 4.594854030761717 2.0500951499999998 Q 4.585366530761718 2.0407801499999993 4.5639765307617175 2.0407801499999993 Q 4.5487965307617175 2.0407801499999993 4.539136530761717 2.0469901499999996 Q 4.529476530761718 2.0532001499999994 4.525681530761718 2.0628601499999997 Q 4.523611530761718 2.0680351499999996 4.518436530761718 2.0680351499999996 L 4.502911530761717 2.0680351499999996 Q 4.499116530761718 2.0680351499999996 4.497219030761718 2.0657926499999997 Q 4.495321530761718 2.0635501499999993 4.495321530761718 2.0604451499999996 Q 4.495321530761718 2.0552701499999997 4.499289030761718 2.0476801499999997 Q 4.503256530761718 2.0400901499999997 4.511536530761718 2.0328451499999995 Q 4.519816530761718 2.0256001499999994 4.532754030761717 2.0205976499999996 Q 4.545691530761718 2.0155951499999993 4.564321530761718 2.0155951499999993 Q 4.5850215307617175 2.0155951499999993 4.5991665307617176 2.0209426499999994 Q 4.613311530761718 2.0262901499999995 4.621419030761718 2.0352601499999996 Q 4.6295265307617175 2.0442301499999997 4.633149030761718 2.0556151499999995 Q 4.636771530761718 2.0670001499999997 4.636771530761718 2.0787301499999997 L 4.636771530761718 2.1905101499999997 Q 4.636771530761718 2.1939601499999997 4.634529030761717 2.1962026499999996 Q 4.632286530761718 2.1984451499999995 4.628836530761718 2.1984451499999995 L 4.612966530761717 2.1984451499999995 Q 4.609171530761717 2.1984451499999995 4.607101530761717 2.1962026499999996 Q 4.605031530761718 2.1939601499999997 4.605031530761718 2.1905101499999997 L 4.605031530761718 2.1756751499999996 Q 4.600546530761718 2.1818851499999994 4.592956530761717 2.1879226499999995 Q 4.585366530761718 2.1939601499999997 4.573981530761718 2.1979276499999996 Q 4.562596530761717 2.2018951499999995 4.546036530761717 2.2018951499999995 M 4.553281530761717 2.1760201499999994 Q 4.5674265307617175 2.1760201499999994 4.5791565307617175 2.1699826499999997 Q 4.5908865307617175 2.1639451499999995 4.597614030761718 2.1511801499999996 Q 4.604341530761718 2.1384151499999997 4.604341530761718 2.1190951499999997 L 4.604341530761718 2.1094351499999995 L 4.564321530761718 2.1153001499999995 Q 4.539826530761718 2.1187501499999994 4.527406530761717 2.1268576499999994 Q 4.514986530761718 2.1349651499999993 4.514986530761718 2.1473851499999994 Q 4.514986530761718 2.1570451499999996 4.520679030761718 2.1634276499999996 Q 4.526371530761717 2.1698101499999995 4.535169030761717 2.1729151499999997 Q 4.543966530761717 2.1760201499999994 4.553281530761717 2.1760201499999994" fill="#0094ff" fill-rule="nonzero"></path></g><g clip-path="url(&quot;#SvgjsClipPath1001&quot;)"><g clip-path="url(&quot;#SvgjsClipPath100011df4b8d-491e-4ab5-95f2-ef9c05fa458d&quot;)"><path d=" M -0.3999999999999999 2.028735461680711 L -0.7454620556009885 2.1935739106828307 L -0.7457208286763453 0.4290003098265468 L -0.9268619814259265 0.34308764880817366 L -0.9268619814259265 1.060924159847231 L -1.6177860926279035 1.4335573883606567 L -1.6180448657032602 2.1327622379740427 L -1.9635069213042486 1.9684413351226366 L -1.9635069213042486 1.3732632618025815 L -1.2723240370269153 1.000630033289156 L -1.2725828101022718 0.17876674595676734 L -2.086165359023251 -0.20809900170126822 L -2.28024516554066 -0.06577381025516821 L -2.28024516554066 0.6047072279936412 L -2.6257072211416483 0.7910238422503542 L -2.6257072211416483 -0.08181774092727406 L -1.9922307326688249 -0.5460566381169167 L -0.4002587730753566 0.21059583422562245 L -0.3999999999999999 2.028735461680711 Z" fill="url(#gradient-dc687421-2f8f-452c-b37f-2ad8251e42a6_0)" transform="matrix(1,0,0,1,0,0)" fill-rule="evenodd"></path></g><g clip-path="url(&quot;#SvgjsClipPath100011df4b8d-491e-4ab5-95f2-ef9c05fa458d&quot;)"><path d=" M -1.2723240370269153 1.5937379220063583 L -1.2723240370269153 2.264218960255168 L -1.4664038435443243 2.4062853786259115 L -2.279727619389947 2.019678404043232 L -2.28024516554066 1.1978151167108437 L -1.5890622812633268 0.8249231151220615 L -1.5888035081879703 0.23000381487736332 L -1.9345243368643152 0.0654241389506004 L -1.934783109939672 0.7646289885639865 L -2.6257072211416483 1.137262217077412 L -2.6257072211416483 1.8553575011918255 L -2.8068483738912304 1.7694448401734526 L -2.807107146966587 0.004871239317168707 L -3.1525692025675753 0.16945091524393174 L -3.1523104294922186 1.9875905426990208 L -1.5603384698987506 2.7445017881169163 L -0.9268619814259265 2.280262890927274 L -0.9268619814259265 1.4074213077496456 L -1.2723240370269153 1.5937379220063583 Z" fill="url(#gradient-dc687421-2f8f-452c-b37f-2ad8251e42a6_1)" transform="matrix(1,0,0,1,0,0)" fill-rule="evenodd"></path></g></g></g><defs><clipPath id="SvgjsClipPath1001"><path d=" M -3.1525692025675753 -0.5460566381169167 h 2.7525692025675754 v 3.290558426233833 h -2.7525692025675754 Z"></path></clipPath><clipPath id="SvgjsClipPath100011df4b8d-491e-4ab5-95f2-ef9c05fa458d"><path d=" M -3.1525692025675753 -0.5460566381169167 L -0.3999999999999999 -0.5460566381169167 L -0.3999999999999999 2.7445017881169163 L -3.1525692025675753 2.7445017881169163 Z"></path></clipPath><linearGradient id="gradient-dc687421-2f8f-452c-b37f-2ad8251e42a6_0" x1="0" x2="1" y1="0" y2="1"><stop stop-color="#4ea1dc" offset="0"></stop><stop stop-color="#3667e0" offset="1"></stop></linearGradient><linearGradient id="gradient-dc687421-2f8f-452c-b37f-2ad8251e42a6_1" x1="0" x2="1" y1="0" y2="1"><stop stop-color="#4ea2dc" offset="0"></stop><stop stop-color="#3668e0" offset="1"></stop></linearGradient></defs></svg>